<?xml version="1.0" encoding="UTF-8"?>
<!-- Generator: Adobe Illustrator 16.0.0, SVG Export Plug-In . SVG Version: 6.00 Build 0)  -->
<!DOCTYPE svg PUBLIC "-//W3C//DTD SVG 1.0//EN" "http://www.w3.org/TR/2001/REC-SVG-20010904/DTD/svg10.dtd">
<svg version="1.0" id="Layer_1" xmlns="http://www.w3.org/2000/svg" xmlns:xlink="http://www.w3.org/1999/xlink" x="0px" y="0px" width="26.589px" height="19.984px" viewBox="110.705 4.508 26.589 19.984" enable-background="new 110.705 4.508 26.589 19.984" xml:space="preserve">
<g>
	<g>
		<path fill="#BDBDBD" d="M110.861,14.434c3.278,3.305,6.556,6.612,9.833,9.917c0.194,0.197,0.512,0.189,0.707,0    c5.25-5.082,10.5-10.166,15.75-15.249c0.189-0.184,0.197-0.525,0-0.707c-1.361-1.25-2.723-2.5-4.084-3.75    c-0.204-0.188-0.504-0.194-0.707,0c-3.213,3.075-6.425,6.15-9.638,9.226c-0.603,0.577-1.205,1.153-1.808,1.729    c-0.458,0.439,0.096-0.174,0.459,0.184c-0.273-0.268-0.546-0.537-0.819-0.807c-1.663-1.638-3.325-3.277-4.987-4.916    c-0.2-0.198-0.505-0.185-0.707,0c-1.333,1.222-2.667,2.444-4,3.666c-0.477,0.437,0.233,1.142,0.707,0.707    c0.841-0.771,1.683-1.542,2.524-2.313c0.441-0.404,0.882-0.809,1.323-1.213c0,0-0.81-0.392-0.154,0.254    c1.811,1.785,3.623,3.571,5.434,5.356c0.197,0.193,0.509,0.189,0.707,0c3.673-3.517,7.346-7.032,11.02-10.548    c0.196-0.188,0.394-0.376,0.59-0.564c-0.342,0.327-0.877-0.263-0.08,0.471c1.119,1.027,2.238,2.054,3.356,3.081    c0.306,0.281,0.392-0.791-0.01-0.402c-0.271,0.261-0.539,0.522-0.81,0.783c-0.931,0.901-1.862,1.803-2.793,2.705    c-3.979,3.854-7.96,7.707-11.938,11.559c0.25-0.24,0.908,0.287,0.414-0.211c-0.304-0.307-0.607-0.611-0.911-0.918    c-1.135-1.145-2.27-2.289-3.405-3.434c-1.756-1.771-3.512-3.543-5.268-5.313C111.113,13.268,110.406,13.976,110.861,14.434z"/>
	</g>
</g>
</svg>