<?xml version="1.0" encoding="UTF-8"?>
<!-- Generator: Adobe Illustrator 16.0.0, SVG Export Plug-In . SVG Version: 6.00 Build 0)  -->
<!DOCTYPE svg PUBLIC "-//W3C//DTD SVG 1.0//EN" "http://www.w3.org/TR/2001/REC-SVG-20010904/DTD/svg10.dtd">
<svg version="1.0" id="Layer_1" xmlns="http://www.w3.org/2000/svg" xmlns:xlink="http://www.w3.org/1999/xlink" x="0px" y="0px" width="15.676px" height="23.301px" viewBox="116.162 2.85 15.676 23.301" enable-background="new 116.162 2.85 15.676 23.301" xml:space="preserve">
<g>
	<g>
		<g>
			<path fill="#0b0204" d="M116.562,17.427c-0.132,1.909-0.263,3.819-0.395,5.729c-0.021,0.3,0.34,0.603,0.633,0.481     c1.754-0.723,3.508-1.444,5.261-2.166c0.414-0.171,0.488-0.645,0.12-0.913c-1.622-1.188-3.244-2.375-4.866-3.562     c-0.521-0.383-1.02,0.486-0.505,0.863c1.622,1.188,3.244,2.375,4.866,3.562c0.04-0.305,0.08-0.608,0.12-0.914     c-1.754,0.724-3.507,1.444-5.261,2.166c0.211,0.161,0.422,0.321,0.633,0.481c0.132-1.908,0.263-3.818,0.395-5.729     C117.606,16.783,116.606,16.787,116.562,17.427z"/>
		</g>
	</g>
	<g>
		<g>
			<path fill="#0b0204" d="M123.692,18.391c-1.845-1.24-3.69-2.479-5.537-3.72c0.06,0.228,0.12,0.456,0.179,0.685     c2.63-3.917,5.26-7.833,7.891-11.75c-0.229,0.06-0.457,0.12-0.684,0.179c1.846,1.24,3.689,2.48,5.537,3.72     c-0.061-0.228-0.121-0.456-0.18-0.684c-2.631,3.916-5.26,7.832-7.891,11.748c-0.361,0.537,0.506,1.037,0.864,0.504     c2.63-3.914,5.259-7.83,7.89-11.746c0.158-0.237,0.035-0.54-0.18-0.684c-1.846-1.24-3.691-2.48-5.537-3.72     c-0.236-0.159-0.539-0.036-0.684,0.179c-2.631,3.917-5.26,7.833-7.89,11.749c-0.159,0.237-0.036,0.541,0.179,0.685     c1.846,1.239,3.691,2.479,5.538,3.719C123.726,19.613,124.226,18.747,123.692,18.391z"/>
		</g>
	</g>
	<rect x="116.307" y="25.327" fill="#0b0204" width="14.254" height="0.823"/>
</g>
</svg>