<?xml version="1.0" encoding="UTF-8"?>
<!-- Generator: Adobe Illustrator 23.0.1, SVG Export Plug-In . SVG Version: 6.00 Build 0)  -->
<svg version="1.1" id="Layer_1" xmlns="http://www.w3.org/2000/svg" xmlns:xlink="http://www.w3.org/1999/xlink" x="0px" y="0px" width="44px" height="25px" viewBox="0 0 44 25" style="enable-background:new 0 0 44 25;" xml:space="preserve">
<style type="text/css">
	.st0{fill:#97C33A;}
	.st1{fill:#D0D2D3;}
</style>
<g>
	<g>
		<path class="st0" d="M0,0.6c0,7.9,0,15.8,0,23.7c0,0.5,0.5,0.8,1,0.6C7.9,21,14.8,17,21.7,13c0.4-0.2,0.4-0.9,0-1.1    C14.8,8,7.9,4,1,0.1C0.2-0.3-0.4,0.8,0.3,1.2c6.9,4,13.8,7.9,20.7,11.9c0-0.4,0-0.7,0-1.1c-6.9,4-13.8,7.9-20.7,11.9    c0.3,0.2,0.6,0.4,1,0.5c0-7.9,0-15.8,0-23.7C1.3-0.2,0-0.2,0,0.6z"/>
	</g>
</g>
<g>
	<g>
		<path class="st1" d="M22,0.6c0,7.9,0,15.8,0,23.7c0,0.5,0.5,0.8,1,0.6C29.9,21,36.8,17,43.7,13c0.4-0.2,0.4-0.9,0-1.1    C36.8,8,29.9,4,23,0.1c-0.7-0.4-1.3,0.7-0.6,1.1c6.9,4,13.8,7.9,20.7,11.9c0-0.4,0-0.7,0-1.1c-6.9,4-13.8,7.9-20.7,11.9    c0.3,0.2,0.6,0.4,1,0.5c0-7.9,0-15.8,0-23.7C23.3-0.2,22-0.2,22,0.6z"/>
	</g>
</g>
</svg>