<?xml version="1.0" encoding="UTF-8"?>
<!-- Generator: Adobe Illustrator 16.0.0, SVG Export Plug-In . SVG Version: 6.00 Build 0)  -->
<!DOCTYPE svg PUBLIC "-//W3C//DTD SVG 1.0//EN" "http://www.w3.org/TR/2001/REC-SVG-20010904/DTD/svg10.dtd">
<svg version="1.0" id="Layer_1" xmlns="http://www.w3.org/2000/svg" xmlns:xlink="http://www.w3.org/1999/xlink" x="0px" y="0px" width="17.008px" height="18.879px" viewBox="115.496 5.061 17.008 18.879" enable-background="new 115.496 5.061 17.008 18.879" xml:space="preserve">
<g>
	<g>
		<g>
			<path fill="#1b88c7" d="M121.125,22.996c-1.708,0-3.417,0-5.125,0c0.167,0.166,0.333,0.332,0.5,0.5c0-5.959,0-11.917,0-17.876     c-0.167,0.167-0.333,0.333-0.5,0.5c1.708,0,3.417,0,5.125,0c-0.167-0.167-0.333-0.333-0.5-0.5c0,5.958,0,11.917,0,17.876     c0,0.645,1,0.645,1,0c0-5.959,0-11.917,0-17.876c0-0.272-0.228-0.5-0.5-0.5c-1.708,0-3.417,0-5.125,0c-0.272,0-0.5,0.228-0.5,0.5     c0,5.958,0,11.917,0,17.876c0,0.271,0.228,0.5,0.5,0.5c1.708,0,3.417,0,5.125,0C121.771,23.996,121.771,22.996,121.125,22.996z"/>
		</g>
	</g>
	<g>
		<g>
			<path fill="#1b88c7" d="M132,22.881c-1.709,0-3.418,0-5.125,0c0.166,0.166,0.332,0.332,0.5,0.5c0-5.959,0-11.917,0-17.876     c-0.168,0.167-0.334,0.333-0.5,0.5c1.707,0,3.416,0,5.125,0c-0.168-0.167-0.334-0.333-0.5-0.5c0,5.958,0,11.917,0,17.876     c0,0.645,1,0.645,1,0c0-5.959,0-11.917,0-17.876c0-0.272-0.229-0.5-0.5-0.5c-1.709,0-3.418,0-5.125,0c-0.271,0-0.5,0.228-0.5,0.5     c0,5.958,0,11.917,0,17.876c0,0.271,0.229,0.5,0.5,0.5c1.707,0,3.416,0,5.125,0C132.646,23.881,132.646,22.881,132,22.881z"/>
		</g>
	</g>
</g>
</svg>