<?xml version="1.0" encoding="UTF-8"?>
<!-- Generator: Adobe Illustrator 16.0.0, SVG Export Plug-In . SVG Version: 6.00 Build 0)  -->
<!DOCTYPE svg PUBLIC "-//W3C//DTD SVG 1.0//EN" "http://www.w3.org/TR/2001/REC-SVG-20010904/DTD/svg10.dtd">
<svg version="1.0" id="Layer_1" xmlns="http://www.w3.org/2000/svg" xmlns:xlink="http://www.w3.org/1999/xlink" x="0px" y="0px" width="14.57px" height="20.834px" viewBox="116.715 4.083 14.57 20.834" enable-background="new 116.715 4.083 14.57 20.834" xml:space="preserve">
<g>
	<g>
		<g>
			<path fill="#0b0204" d="M130.916,24.164c-2.957,0-5.912,0-8.868,0c-1.474,0-2.949,0-4.423,0c-0.809,0-0.167-0.041-0.167,0.312     c0-0.373,0-0.746,0-1.119c0-6.279,0-12.558,0-18.837c0,0.352-0.642,0.312,0.167,0.312c0.603,0,1.206,0,1.808,0     c2.013,0,4.026,0,6.039,0c1.56,0,3.118,0,4.679,0c0.959,0,0.391,0.136,0.391-0.359c0,0.31,0,0.62,0,0.93     c0,6.332,0,12.665,0,18.997c0,0.047,0,0.094,0,0.141c0,0.484,0.75,0.484,0.75,0c0-6.693,0-13.388,0-20.083     c0-0.205-0.17-0.375-0.375-0.375c-4.61,0-9.221,0-13.832,0c-0.205,0-0.375,0.17-0.375,0.375c0,6.694,0,13.389,0,20.083     c0,0.205,0.17,0.375,0.375,0.375c4.611,0,9.222,0,13.832,0C131.4,24.914,131.4,24.164,130.916,24.164z"/>
		</g>
	</g>
	<rect x="119.875" y="8.707" fill="#0b0204" width="8.25" height="1"/>
	<rect x="119.875" y="14.124" fill="#0b0204" width="8.25" height="1"/>
	<rect x="119.875" y="19.123" fill="#0b0204" width="8.25" height="1"/>
</g>
</svg>